<?xml version="1.0" encoding="UTF-8"?>
<svg xmlns="http://www.w3.org/2000/svg" viewBox="0 0 785.65 785.65" role="img" aria-label="TobDev"><defs><linearGradient id="mg" gradientUnits="userSpaceOnUse" x1="65.5" y1="118.2" x2="720.2" y2="667.5"><stop offset="0" stop-color="#5B6FE4"/><stop offset="1" stop-color="#11BFD6"/></linearGradient></defs><path d="M 386.06485963445806,118.65944136539912 C 373.46485963445804,120.15944136539912 361.6648596344581,127.75944136539914 357.06485963445806,137.35944136539916 L 354.96485963445804,141.85944136539916 L 342.96485963445804,143.5594413653991 C 330.76485963445805,145.35944136539905 302.76485963445805,151.15944136539912 292.56485963445806,154.0594413653991 C 267.36485963445807,161.25944136539914 226.36485963445807,179.75944136539914 206.96485963445804,192.65944136539912 C 181.46485963445804,209.5594413653991 157.16485963445803,234.5594413653991 128.36485963445804,273.85944136539916 C 116.16485963445805,290.55944136539915 100.16485963445803,312.55944136539915 91.56485963445806,324.4594413653992 C 83.46485963445807,335.65944136539923 73.26485963445805,353.65944136539923 70.36485963445804,362.0594413653991 C 64.06485963445803,379.65944136539923 63.86485963445804,403.15944136539923 69.66485963445805,419.9594413653992 C 73.96485963445807,432.15944136539923 89.96485963445807,452.0594413653992 99.56485963445806,457.0594413653991 C 105.06485963445806,459.85944136539916 113.66485963445805,462.4594413653992 117.46485963445804,462.4594413653992 C 121.86485963445804,462.4594413653992 123.56485963445803,463.75944136539914 129.86485963445804,472.15944136539923 C 141.06485963445806,487.0594413653991 154.46485963445804,492.75944136539914 173.06485963445806,490.4594413653992 C 186.96485963445804,488.65944136539923 194.66485963445808,486.0594413653992 218.96485963445804,474.65944136539923 C 256.76485963445805,456.9594413653992 313.664859634458,441.9594413653992 360.26485963445805,437.4594413653992 C 374.46485963445804,436.0594413653992 412.764859634458,436.0594413653992 426.46485963445804,437.4594413653992 C 470.56485963445806,441.85944136539916 528.2648596344579,457.0594413653992 563.964859634458,473.65944136539923 C 594.164859634458,487.75944136539914 603.7648596344579,490.75944136539914 618.464859634458,490.75944136539914 C 635.464859634458,490.75944136539914 646.7648596344579,484.65944136539923 656.5648596344581,470.25944136539914 C 661.164859634458,463.5594413653992 661.164859634458,463.5594413653992 666.664859634458,462.85944136539916 C 677.7648596344582,461.4594413653992 685.164859634458,458.0594413653991 694.3648596344581,450.4594413653992 C 712.8648596344581,435.0594413653992 723.0648596344581,407.25944136539914 719.464859634458,381.4594413653992 C 716.464859634458,359.25944136539914 706.8648596344581,341.4594413653992 674.8648596344581,298.4594413653992 C 671.0648596344581,293.2594413653992 666.0648596344581,286.4594413653992 663.964859634458,283.4594413653992 C 655.7648596344579,271.85944136539916 633.2648596344579,243.4594413653992 624.0648596344581,232.9594413653992 C 598.3648596344581,203.85944136539916 571.5648596344581,184.9594413653992 532.7648596344582,168.5594413653992 C 503.7648596344581,156.35944136539916 468.46485963445815,146.65944136539923 440.96485963445804,143.35944136539916 C 430.46485963445804,142.0594413653992 428.46485963445804,141.35944136539916 428.46485963445804,138.4594413653992 C 428.46485963445804,135.85944136539916 422.96485963445804,128.85944136539916 418.2648596344581,125.45944136539919 C 413.96485963445815,122.25944136539914 403.8648596344581,118.85944136539916 396.96485963445804,118.25944136539914 C 394.764859634458,118.0594413653991 389.864859634458,118.25944136539914 386.06485963445806,118.65944136539912" fill="url(#mg)"/><path d="M 257.96485963445804,479.85944136539916 C 249.16485963445803,482.75944136539914 238.46485963445804,487.15944136539923 226.96485963445804,492.5594413653991 C 222.06485963445806,494.85944136539916 213.864859634458,498.35944136539916 208.86485963445807,500.35944136539916 L 199.66485963445808,503.9594413653992 L 230.36485963445807,503.9594413653992 C 281.56485963445806,503.9594413653992 315.4648596344581,508.5594413653992 332.76485963445805,517.7594413653992 C 349.26485963445805,526.4594413653992 350.76485963445805,543.7594413653992 338.06485963445806,580.0594413653992 C 324.06485963445806,620.0594413653992 313.46485963445804,631.8594413653991 286.36485963445807,637.5594413653992 C 271.36485963445807,640.6594413653993 242.66485963445808,642.0594413653992 222.76485963445805,640.6594413653993 C 198.76485963445805,639.0594413653992 186.76485963445805,635.3594413653991 178.16485963445803,626.9594413653992 C 169.064859634458,618.0594413653992 163.46485963445804,599.4594413653992 159.86485963445807,565.1594413653993 C 156.76485963445805,536.1594413653993 158.86485963445807,522.8594413653991 167.86485963445807,514.7594413653992 L 171.96485963445804,510.9594413653992 L 164.46485963445804,510.75944136539914 C 154.864859634458,510.4594413653992 148.76485963445805,509.0594413653992 139.76485963445805,504.85944136539916 C 132.76485963445805,501.75944136539914 122.96485963445804,494.9594413653992 119.06485963445806,490.5594413653991 C 116.56485963445806,487.85944136539916 115.26485963445805,487.85944136539916 111.76485963445805,490.85944136539916 L 108.96485963445804,493.25944136539914 L 109.06485963445806,510.15944136539923 C 109.06485963445806,520.2594413653992 109.56485963445806,527.9594413653992 110.16485963445805,529.5594413653992 C 110.76485963445805,531.0594413653992 113.96485963445807,534.1594413653993 117.16485963445805,536.5594413653992 C 126.96485963445807,543.9594413653992 127.86485963445804,546.7594413653992 136.86485963445807,595.4594413653992 C 143.86485963445807,632.8594413653991 157.16485963445808,652.9594413653992 180.26485963445805,661.0594413653992 C 192.36485963445807,665.2594413653992 203.96485963445804,666.5594413653992 233.16485963445808,667.1594413653993 C 281.1648596344581,668.1594413653993 305.7648596344581,664.2594413653992 322.96485963445804,652.9594413653992 C 341.56485963445806,640.7594413653992 352.364859634458,623.2594413653992 364.86485963445807,585.3594413653991 C 372.56485963445806,561.7594413653992 374.6648596344581,556.7594413653992 379.06485963445806,551.5594413653992 C 382.76485963445805,547.1594413653993 386.46485963445804,545.4594413653992 392.7648596344581,545.4594413653992 C 404.56485963445806,545.4594413653992 410.96485963445815,553.7594413653992 417.96485963445804,577.7594413653992 C 433.46485963445804,631.3594413653991 453.364859634458,655.9594413653992 486.7648596344581,662.8594413653991 C 516.3648596344581,669.0594413653992 575.9648596344582,668.9594413653992 599.8648596344581,662.8594413653991 C 610.164859634458,660.2594413653992 618.164859634458,655.6594413653993 625.3648596344581,648.3594413653991 C 638.3648596344581,635.0594413653992 642.9648596344582,623.5594413653992 650.0648596344581,586.2594413653992 C 657.164859634458,548.3594413653991 658.5648596344581,543.8594413653991 664.464859634458,539.3594413653991 C 673.3648596344581,532.5594413653992 674.664859634458,530.9594413653992 675.5648596344581,525.8594413653991 C 676.964859634458,517.4594413653992 676.664859634458,497.75944136539914 675.0648596344581,493.9594413653992 C 672.464859634458,487.85944136539916 666.8648596344581,486.65944136539923 663.2648596344582,491.4594413653992 C 662.0648596344581,493.15944136539923 658.7648596344582,496.25944136539914 655.964859634458,498.35944136539916 C 645.0648596344581,506.65944136539923 633.8648596344581,510.4594413653992 620.8648596344581,510.4594413653992 L 613.0648596344581,510.4594413653992 L 617.164859634458,514.6594413653993 C 619.464859634458,517.0594413653992 622.3648596344581,521.1594413653993 623.664859634458,523.9594413653992 C 625.7648596344582,528.6594413653993 625.964859634458,530.1594413653993 625.964859634458,547.9594413653992 C 625.8648596344581,584.3594413653991 618.164859634458,615.5594413653992 606.5648596344581,627.1594413653993 C 595.5648596344581,638.1594413653993 573.7648596344582,642.4594413653992 536.464859634458,641.0594413653992 C 483.56485963445806,639.0594413653992 470.364859634458,632.4594413653992 455.46485963445804,601.1594413653993 C 443.6648596344581,576.3594413653991 436.864859634458,543.9594413653992 440.6648596344581,531.0594413653992 C 442.56485963445806,524.8594413653991 449.56485963445806,518.3594413653991 457.96485963445804,515.1594413653993 C 476.6648596344581,507.85944136539916 508.56485963445806,504.15944136539923 553.0648596344581,504.0594413653991 L 585.164859634458,503.9594413653992 L 577.0648596344581,500.85944136539916 C 572.5648596344581,499.15944136539923 562.964859634458,494.9594413653992 555.5648596344581,491.5594413653991 C 548.164859634458,488.15944136539923 536.964859634458,483.5594413653991 530.5648596344581,481.35944136539916 L 518.964859634458,477.35944136539916 L 506.46485963445804,478.4594413653992 C 478.46485963445804,480.9594413653992 457.764859634458,484.65944136539923 439.1648596344581,490.4594413653992 C 420.2648596344581,496.35944136539916 416.6648596344581,496.75944136539914 388.1648596344581,496.15944136539923 C 363.2648596344581,495.65944136539923 362.86485963445807,495.65944136539923 353.46485963445804,492.5594413653991 C 339.664859634458,487.9594413653992 322.46485963445804,483.75944136539914 310.46485963445804,482.0594413653991 C 300.96485963445804,480.65944136539923 268.364859634458,477.35944136539916 265.96485963445804,477.5594413653991 C 265.46485963445804,477.5594413653991 261.864859634458,478.65944136539923 257.96485963445804,479.85944136539916" fill="url(#mg)"/></svg>